<?xml version="1.0" encoding="iso-8859-1"?>
<!-- Generator: Adobe Illustrator 19.0.0, SVG Export Plug-In . SVG Version: 6.00 Build 0)  -->
<svg version="1.1" fill="#29B6F6" id="Capa_1" xmlns="http://www.w3.org/2000/svg" xmlns:xlink="http://www.w3.org/1999/xlink" x="0px" y="0px"
	 viewBox="0 0 512 512" style="enable-background:new 0 0 512 512;" xml:space="preserve">
<g>
	<g>
		<path d="M417.367,0H245.729c-24.813,0-45,20.187-45,45v196.361c-5.037-0.569-10.154-0.872-15.34-0.872
			c-74.856,0-135.756,60.899-135.756,135.755S110.533,512,185.389,512c13.413,0,26.373-1.965,38.62-5.605
			c6.444,3.567,13.848,5.605,21.72,5.605h171.638c24.813,0,45-20.187,45-45V45C462.367,20.187,442.18,0,417.367,0z M185.389,482
			c-58.314,0-105.756-47.442-105.756-105.756s47.442-105.755,105.756-105.755c58.313,0,105.755,47.441,105.755,105.755
			C291.144,434.558,243.702,482,185.389,482z M432.367,467c0,8.271-6.729,15-15,15H270.403
			c15.521-12.502,28.246-28.339,37.069-46.419h124.895V467z M432.367,405.581H317.942c2.09-9.451,3.202-19.266,3.202-29.336
			c0-7.823-0.674-15.49-1.95-22.954h113.173V405.581z M432.367,323.291H310.388c-8.712-20.489-22.323-38.408-39.35-52.291h161.329
			V323.291z M432.367,241H230.729v-52.291h201.638V241z M432.367,158.709H230.729v-52.29h201.638V158.709z M432.367,76.419H230.729
			V45c0-8.271,6.729-15,15-15h171.638c8.271,0,15,6.729,15,15V76.419z"/>
	</g>
</g>
<g>
</g>
<g>
</g>
<g>
</g>
<g>
</g>
<g>
</g>
<g>
</g>
<g>
</g>
<g>
</g>
<g>
</g>
<g>
</g>
<g>
</g>
<g>
</g>
<g>
</g>
<g>
</g>
<g>
</g>
</svg>
