<svg id="Layer_1" fill="#FFFFFF" enable-background="new 0 0 508.806 508.806" height="512" viewBox="0 0 508.806 508.806" width="512" xmlns="http://www.w3.org/2000/svg"><g><ellipse cx="256.828" cy="78.713" rx="41.881" ry="41.881" transform="matrix(.707 -.707 .707 .707 19.565 204.66)"/><path d="m313.001 286.917c8.403 5.929 20.041 4.49 26.727-3.495l48.041-57.378c7.489-8.946 5.713-22.398-3.843-29.092l-71.695-50.398c-8.634-6.07-18.931-9.327-29.486-9.327h-41.585l-63.331-44.67-22.375-78.123c-3.029-10.573-14.055-16.688-24.625-13.66-10.571 3.028-16.688 14.053-13.659 24.625l24.304 84.854c1.248 4.357 3.944 8.158 7.645 10.775l58.552 41.409c-.197 1.987-.139 126.038-.139 126.139-18.728 26.493-34.464 48.754-51.783 73.253-3.465 4.902-4.958 10.928-4.182 16.881 1.46 11.199 13.046 100.078 14.246 109.286 1.711 13.123 13.734 22.306 26.783 20.605 13.086-1.706 22.311-13.697 20.605-26.782l-13.041-100.029 51.984-73.536h12.651c-.305 10.103-2.069 68.586-2.42 80.223-.129 4.268.888 8.492 2.945 12.234l52.631 95.71c6.36 11.564 20.889 15.783 32.451 9.424 11.563-6.359 15.783-20.887 9.424-32.451l-49.489-89.995 2.661-75.144v-21.338zm0-91.024 30.302 21.226-30.302 36.191z"/></g></svg>