<svg id="Layer_1" fill="#29B6F6" enable-background="new 0 0 512 512" height="512" viewBox="0 0 512 512" width="512" xmlns="http://www.w3.org/2000/svg"><g><path d="m497 0h-176.733c-8.284 0-15 6.716-15 15v58.053l-27.74 27.74c-5.858 5.858-5.858 15.355 0 21.213l27.74 27.74v58.054c0 8.284 6.716 15 15 15h176.733c8.284 0 15-6.716 15-15v-192.8c0-8.284-6.716-15-15-15zm-64.267 158.533h-48.2c-8.284 0-15-6.716-15-15s6.716-15 15-15h48.2c8.284 0 15 6.716 15 15s-6.715 15-15 15zm0-64.266h-48.2c-8.284 0-15-6.716-15-15s6.716-15 15-15h48.2c8.284 0 15 6.716 15 15s-6.715 15-15 15z"/><circle cx="159.6" cy="71.767" r="71.767"/><path d="m16.067 497c0 8.284 6.716 15 15 15h257.066c8.284 0 15-6.716 15-15v-83.533h-287.066z"/><path d="m304.2 319.2h-289.2c-8.284 0-15 6.716-15 15v34.267c0 8.284 6.716 15 15 15h289.2c8.284 0 15-6.716 15-15v-34.267c0-8.284-6.716-15-15-15z"/><path d="m271 254.933c0-61.623-49.877-111.4-111.4-111.4-61.633 0-111.4 49.886-111.4 111.4v34.267h222.8z"/></g></svg>