<svg id="Capa_1" fill="#FFFFFF" enable-background="new 0 0 512 512" height="512" viewBox="0 0 512 512" width="512" xmlns="http://www.w3.org/2000/svg"><g><path d="m392 462v35c0 8.284 6.716 15 15 15h50c13.807 0 25-11.193 25-25 0-13.807-11.193-25-25-25z"/><path d="m65 22h-25c-22.091 0-40 17.908-40 40v272.604c11.348-7.932 25.135-12.604 40-12.604h40v-285c0-8.284-6.716-15-15-15z"/><g><g><path d="m483.817 82c-6.818 18.466-15.975 38.798-28.224 59.102-5.304 8.795-14.049 15.057-24.069 17.257.762 9.973-2.466 20.207-9.739 28.163-.508.556-1.647 1.82-1.647 1.82-1.711 1.901-3.864 4.293-6.313 6.742-39.351 39.351-87.256 61.267-120.514 72.723-35.155 12.11-61.355 15.439-64.227 15.779-1.437.171-2.93.26-4.408.26-4.767 0-9.394-.894-13.703-2.583l-18.116 18.116c-2.928 2.929-6.768 4.394-10.606 4.394-3.86 0-7.718-1.48-10.653-4.44-5.867-5.917-5.531-15.589.361-21.481l17.799-17.799c-2.227-5.666-3.062-11.857-2.322-18.114.343-2.89 3.69-29.128 15.78-64.227 9.133-26.513 24.925-62.333 50.889-95.711h-144.105v255c0 8.284-6.716 15-15 15h-55c-22.091 0-40 17.909-40 40 0 22.091 17.909 40 40 40h417c30.327 0 55 24.673 55 55v-376.818c0-15.565-12.618-28.183-28.183-28.183z"/></g><path d="m334.277 136.744c5.858 5.858 5.858 15.355 0 21.213l-93.164 93.164c10.369-2.126 25.217-5.751 42.426-11.679 30.271-10.427 73.768-30.269 109.073-65.574 1.877-1.876 3.591-3.779 5.247-5.619.593-.657 1.186-1.315 1.783-1.97 2.707-2.961 2.604-7.527-.231-10.364l-18.102-18.101 43.645-8.729c2.066-.413 3.863-1.676 4.951-3.48 25.84-42.833 36.673-85.927 40.83-107.803.927-4.878-.613-9.889-4.121-13.402-3.501-3.509-8.5-5.059-13.371-4.141-28.862 5.427-101.848 23.906-156.09 78.148-35.306 35.306-55.147 78.802-65.574 109.074-5.928 17.209-9.553 32.057-11.679 42.427l93.164-93.164c5.859-5.858 15.357-5.858 21.213 0z"/></g></g></svg>