<svg id="Capa_1" fill="#29B6F6" enable-background="new 0 0 512 512" height="512" viewBox="0 0 512 512" width="512" xmlns="http://www.w3.org/2000/svg"><g><path d="m196.507 57.749 37.92 75.839-120.558 198.06c19.867 6.6 45.445 11.693 73.973 14.851v-11.873h136.316v11.852c32.695-3.632 61.519-9.794 82.172-17.767l-85.43-187.135-79.914-79.915v-54.684z"/><path d="m324.158 423.993c23.997-2.645 45.964-6.699 64.6-12.024 31.712-9.061 42.499-18.727 45.115-22.927l-15.062-32.994c-24.149 9.547-57.23 16.69-94.653 20.639z"/><path d="m123.242 411.969c18.638 5.325 40.6 9.384 64.6 12.029v-47.261c-35.046-3.669-66.205-10.147-89.935-18.866l-19.356 31.799c3.253 4.479 14.471 13.664 44.691 22.299z"/><path d="m217.871 364.654h76.257v76.256h-76.257z"/><path d="m0 442.606c0 7.706 14.425 24.869 68.488 40.316 49.884 14.252 116.477 22.102 187.512 22.102s137.628-7.849 187.512-22.102c54.063-15.447 68.488-32.61 68.488-40.316 0-6.956-11.757-21.617-53.803-35.765-9.625 13.724-30.085 25.115-61.189 34.002-21.04 6.011-45.853 10.52-72.85 13.342v16.755h-136.316v-16.755c-26.997-2.822-51.81-7.33-72.85-13.342-31.104-8.886-51.563-20.278-61.189-34.002-42.046 14.149-53.803 28.809-53.803 35.765z"/></g></svg>