<svg id="Capa_1" fill="#FFFFFF" enable-background="new 0 0 511.912 511.912" height="512" viewBox="0 0 511.912 511.912" width="512" xmlns="http://www.w3.org/2000/svg"><g><path d="m146.82 125.607c25.958-21.769 58.486-35.94 94.136-39.071v-86.536c-59.421 3.445-113.47 27.216-155.295 64.448z"/><path d="m365.092 386.305c-25.958 21.769-58.486 35.94-94.136 39.071v86.536c59.421-3.445 113.47-27.216 155.295-64.448z"/><path d="m337.467 246.698c0 20.459-7.967 39.694-22.435 54.161-33.911 33.912-67.682 41.136-90.279 41.137-.244 0-.484-.001-.725-.003-24.602-.168-40.997-8.506-42.786-9.456l-17.908-9.515 14.339-14.339c10.125-10.125 10.125-28.264 10.125-47.467 0-23.328 0-49.769 18.912-68.68 14.467-14.467 33.702-22.435 54.161-22.435 7.316 0 14.469 1.036 21.31 3.007 7-16.884 15.129-32.876 24.295-47.813-15.681-6.084-32.716-9.429-50.52-9.429-77.246 0-140.089 62.844-140.089 140.089s62.844 140.089 140.089 140.089 140.089-62.844 140.089-140.089c0-18.045-3.432-35.304-9.673-51.16-15.783 9.707-32.737 18.243-50.673 25.515 1.155 5.326 1.768 10.809 1.768 16.388z"/><path d="m365.092 125.607 61.159-61.158c-41.825-37.233-95.874-61.004-155.295-64.449v86.536c35.651 3.131 68.178 17.301 94.136 39.071z"/><path d="m333.183 139.137c-9.253 14.825-17.381 30.86-24.287 47.896 2.125 1.717 4.178 3.546 6.137 5.504 3.202 3.202 6.065 6.648 8.614 10.279 17.211-6.953 33.731-15.308 48.749-24.662-10.358-15.452-23.708-28.733-39.213-39.017z"/><path d="m146.82 386.305-61.159 61.158c41.825 37.233 95.874 61.003 155.295 64.448v-86.536c-35.65-3.129-68.178-17.3-94.136-39.07z"/><path d="m386.305 146.819c21.77 25.958 35.941 58.486 39.071 94.137h86.536c-3.445-59.421-27.215-113.47-64.448-155.295z"/><path d="m227.923 213.75c-10.125 10.125-10.125 28.263-10.125 47.467 0 16.256 0 34.022-6.399 49.7 18.209 3.147 49.516 1.635 82.421-31.271 18.167-18.168 18.167-47.729 0-65.896-18.169-18.168-47.73-18.168-65.897 0z"/><path d="m425.376 270.956c-3.13 35.651-17.301 68.178-39.071 94.137l61.158 61.158c37.233-41.825 61.003-95.874 64.448-155.295z"/><path d="m125.607 365.093c-21.77-25.958-35.941-58.486-39.071-94.137h-86.536c3.445 59.421 27.215 113.47 64.448 155.295z"/><path d="m86.536 240.956c3.13-35.651 17.301-68.178 39.071-94.137l-61.159-61.158c-37.232 41.825-61.003 95.874-64.448 155.295z"/></g></svg>