<svg xmlns="http://www.w3.org/2000/svg" viewBox="0 0 1100.09 1100.09"><defs><style>.cls-1{fill:none;stroke:#fafafa;stroke-miterlimit:10;}</style></defs><g id="Layer_2" data-name="Layer 2"><g id="Landing_page" data-name="Landing page"><g id="Home_page_main_graphic" data-name="Home page main graphic"><g id="Multicity_Text" data-name="Multicity Text"><line class="cls-1" x1="598.59" y1="0.35" x2="0.35" y2="598.59"/><line class="cls-1" x1="600.67" y1="2.43" x2="2.43" y2="600.67"/><line class="cls-1" x1="602.74" y1="4.51" x2="4.51" y2="602.74"/><line class="cls-1" x1="604.82" y1="6.59" x2="6.59" y2="604.82"/><line class="cls-1" x1="606.9" y1="8.67" x2="8.67" y2="606.9"/><line class="cls-1" x1="608.98" y1="10.75" x2="10.75" y2="608.98"/><line class="cls-1" x1="611.06" y1="12.83" x2="12.83" y2="611.06"/><line class="cls-1" x1="613.14" y1="14.91" x2="14.91" y2="613.14"/><line class="cls-1" x1="615.22" y1="16.99" x2="16.99" y2="615.22"/><line class="cls-1" x1="617.3" y1="19.07" x2="19.07" y2="617.3"/><line class="cls-1" x1="619.38" y1="21.15" x2="21.15" y2="619.38"/><line class="cls-1" x1="621.46" y1="23.23" x2="23.23" y2="621.46"/><line class="cls-1" x1="623.54" y1="25.31" x2="25.31" y2="623.54"/><line class="cls-1" x1="625.62" y1="27.39" x2="27.39" y2="625.62"/><line class="cls-1" x1="627.7" y1="29.47" x2="29.47" y2="627.7"/><line class="cls-1" x1="629.78" y1="31.55" x2="31.55" y2="629.78"/><line class="cls-1" x1="631.86" y1="33.63" x2="33.63" y2="631.86"/><line class="cls-1" x1="633.94" y1="35.7" x2="35.7" y2="633.94"/><line class="cls-1" x1="636.02" y1="37.78" x2="37.78" y2="636.02"/><line class="cls-1" x1="638.1" y1="39.86" x2="39.86" y2="638.1"/><line class="cls-1" x1="640.18" y1="41.94" x2="41.94" y2="640.18"/><line class="cls-1" x1="642.25" y1="44.02" x2="44.02" y2="642.25"/><line class="cls-1" x1="644.33" y1="46.1" x2="46.1" y2="644.33"/><line class="cls-1" x1="646.41" y1="48.18" x2="48.18" y2="646.41"/><line class="cls-1" x1="648.49" y1="50.26" x2="50.26" y2="648.49"/><line class="cls-1" x1="650.57" y1="52.34" x2="52.34" y2="650.57"/><line class="cls-1" x1="652.65" y1="54.42" x2="54.42" y2="652.65"/><line class="cls-1" x1="654.73" y1="56.5" x2="56.5" y2="654.73"/><line class="cls-1" x1="656.81" y1="58.58" x2="58.58" y2="656.81"/><line class="cls-1" x1="658.89" y1="60.66" x2="60.66" y2="658.89"/><line class="cls-1" x1="660.97" y1="62.74" x2="62.74" y2="660.97"/><line class="cls-1" x1="663.05" y1="64.82" x2="64.82" y2="663.05"/><line class="cls-1" x1="665.13" y1="66.9" x2="66.9" y2="665.13"/><line class="cls-1" x1="667.21" y1="68.98" x2="68.98" y2="667.21"/><line class="cls-1" x1="669.29" y1="71.06" x2="71.06" y2="669.29"/><line class="cls-1" x1="671.37" y1="73.14" x2="73.14" y2="671.37"/><line class="cls-1" x1="673.45" y1="75.21" x2="75.21" y2="673.45"/><line class="cls-1" x1="675.53" y1="77.29" x2="77.29" y2="675.53"/><line class="cls-1" x1="677.61" y1="79.37" x2="79.37" y2="677.61"/><line class="cls-1" x1="679.69" y1="81.45" x2="81.45" y2="679.69"/><line class="cls-1" x1="681.76" y1="83.53" x2="83.53" y2="681.76"/><line class="cls-1" x1="683.84" y1="85.61" x2="85.61" y2="683.84"/><line class="cls-1" x1="685.92" y1="87.69" x2="87.69" y2="685.92"/><line class="cls-1" x1="688" y1="89.77" x2="89.77" y2="688"/><line class="cls-1" x1="690.08" y1="91.85" x2="91.85" y2="690.08"/><line class="cls-1" x1="692.16" y1="93.93" x2="93.93" y2="692.16"/><line class="cls-1" x1="694.24" y1="96.01" x2="96.01" y2="694.24"/><line class="cls-1" x1="696.32" y1="98.09" x2="98.09" y2="696.32"/><line class="cls-1" x1="698.4" y1="100.17" x2="100.17" y2="698.4"/><line class="cls-1" x1="700.48" y1="102.25" x2="102.25" y2="700.48"/><line class="cls-1" x1="702.56" y1="104.33" x2="104.33" y2="702.56"/><line class="cls-1" x1="704.64" y1="106.41" x2="106.41" y2="704.64"/><line class="cls-1" x1="706.72" y1="108.49" x2="108.49" y2="706.72"/><line class="cls-1" x1="708.8" y1="110.57" x2="110.57" y2="708.8"/><line class="cls-1" x1="710.88" y1="112.65" x2="112.65" y2="710.88"/><line class="cls-1" x1="712.96" y1="114.72" x2="114.72" y2="712.96"/><line class="cls-1" x1="715.04" y1="116.8" x2="116.8" y2="715.04"/><line class="cls-1" x1="717.12" y1="118.88" x2="118.88" y2="717.12"/><line class="cls-1" x1="719.2" y1="120.96" x2="120.96" y2="719.2"/><line class="cls-1" x1="721.27" y1="123.04" x2="123.04" y2="721.27"/><line class="cls-1" x1="723.35" y1="125.12" x2="125.12" y2="723.35"/><line class="cls-1" x1="725.43" y1="127.2" x2="127.2" y2="725.43"/><line class="cls-1" x1="727.51" y1="129.28" x2="129.28" y2="727.51"/><line class="cls-1" x1="729.59" y1="131.36" x2="131.36" y2="729.59"/><line class="cls-1" x1="731.67" y1="133.44" x2="133.44" y2="731.67"/><line class="cls-1" x1="733.75" y1="135.52" x2="135.52" y2="733.75"/><line class="cls-1" x1="735.83" y1="137.6" x2="137.6" y2="735.83"/><line class="cls-1" x1="737.91" y1="139.68" x2="139.68" y2="737.91"/><line class="cls-1" x1="739.99" y1="141.76" x2="141.76" y2="739.99"/><line class="cls-1" x1="742.07" y1="143.84" x2="143.84" y2="742.07"/><line class="cls-1" x1="744.15" y1="145.92" x2="145.92" y2="744.15"/><line class="cls-1" x1="746.23" y1="148" x2="148" y2="746.23"/><line class="cls-1" x1="748.31" y1="150.08" x2="150.08" y2="748.31"/><line class="cls-1" x1="750.39" y1="152.16" x2="152.16" y2="750.39"/><line class="cls-1" x1="752.47" y1="154.23" x2="154.23" y2="752.47"/><line class="cls-1" x1="754.55" y1="156.31" x2="156.31" y2="754.55"/><line class="cls-1" x1="756.63" y1="158.39" x2="158.39" y2="756.63"/><line class="cls-1" x1="758.71" y1="160.47" x2="160.47" y2="758.71"/><line class="cls-1" x1="760.78" y1="162.55" x2="162.55" y2="760.78"/><line class="cls-1" x1="762.86" y1="164.63" x2="164.63" y2="762.86"/><line class="cls-1" x1="764.94" y1="166.71" x2="166.71" y2="764.94"/><line class="cls-1" x1="767.02" y1="168.79" x2="168.79" y2="767.02"/><line class="cls-1" x1="769.1" y1="170.87" x2="170.87" y2="769.1"/><line class="cls-1" x1="771.18" y1="172.95" x2="172.95" y2="771.18"/><line class="cls-1" x1="773.26" y1="175.03" x2="175.03" y2="773.26"/><line class="cls-1" x1="775.34" y1="177.11" x2="177.11" y2="775.34"/><line class="cls-1" x1="777.42" y1="179.19" x2="179.19" y2="777.42"/><line class="cls-1" x1="779.5" y1="181.27" x2="181.27" y2="779.5"/><line class="cls-1" x1="781.58" y1="183.35" x2="183.35" y2="781.58"/><line class="cls-1" x1="783.66" y1="185.43" x2="185.43" y2="783.66"/><line class="cls-1" x1="785.74" y1="187.51" x2="187.51" y2="785.74"/><line class="cls-1" x1="787.82" y1="189.59" x2="189.59" y2="787.82"/><line class="cls-1" x1="789.9" y1="191.67" x2="191.67" y2="789.9"/><line class="cls-1" x1="791.98" y1="193.74" x2="193.74" y2="791.98"/><line class="cls-1" x1="794.06" y1="195.82" x2="195.82" y2="794.06"/><line class="cls-1" x1="796.14" y1="197.9" x2="197.9" y2="796.14"/><line class="cls-1" x1="798.22" y1="199.98" x2="199.98" y2="798.22"/><line class="cls-1" x1="800.29" y1="202.06" x2="202.06" y2="800.29"/><line class="cls-1" x1="802.37" y1="204.14" x2="204.14" y2="802.37"/><line class="cls-1" x1="804.45" y1="206.22" x2="206.22" y2="804.45"/><line class="cls-1" x1="806.53" y1="208.3" x2="208.3" y2="806.53"/><line class="cls-1" x1="808.61" y1="210.38" x2="210.38" y2="808.61"/><line class="cls-1" x1="810.69" y1="212.46" x2="212.46" y2="810.69"/><line class="cls-1" x1="812.77" y1="214.54" x2="214.54" y2="812.77"/><line class="cls-1" x1="814.85" y1="216.62" x2="216.62" y2="814.85"/><line class="cls-1" x1="816.93" y1="218.7" x2="218.7" y2="816.93"/><line class="cls-1" x1="819.01" y1="220.78" x2="220.78" y2="819.01"/><line class="cls-1" x1="821.09" y1="222.86" x2="222.86" y2="821.09"/><line class="cls-1" x1="823.17" y1="224.94" x2="224.94" y2="823.17"/><line class="cls-1" x1="825.25" y1="227.02" x2="227.02" y2="825.25"/><line class="cls-1" x1="827.33" y1="229.1" x2="229.1" y2="827.33"/><line class="cls-1" x1="829.41" y1="231.18" x2="231.18" y2="829.41"/><line class="cls-1" x1="831.49" y1="233.25" x2="233.25" y2="831.49"/><line class="cls-1" x1="833.57" y1="235.33" x2="235.33" y2="833.57"/><line class="cls-1" x1="835.65" y1="237.41" x2="237.41" y2="835.65"/><line class="cls-1" x1="837.73" y1="239.49" x2="239.49" y2="837.73"/><line class="cls-1" x1="839.8" y1="241.57" x2="241.57" y2="839.8"/><line class="cls-1" x1="841.88" y1="243.65" x2="243.65" y2="841.88"/><line class="cls-1" x1="843.96" y1="245.73" x2="245.73" y2="843.96"/><line class="cls-1" x1="846.04" y1="247.81" x2="247.81" y2="846.04"/><line class="cls-1" x1="848.12" y1="249.89" x2="249.89" y2="848.12"/><line class="cls-1" x1="850.2" y1="251.97" x2="251.97" y2="850.2"/><line class="cls-1" x1="852.28" y1="254.05" x2="254.05" y2="852.28"/><line class="cls-1" x1="854.36" y1="256.13" x2="256.13" y2="854.36"/><line class="cls-1" x1="856.44" y1="258.21" x2="258.21" y2="856.44"/><line class="cls-1" x1="858.52" y1="260.29" x2="260.29" y2="858.52"/><line class="cls-1" x1="860.6" y1="262.37" x2="262.37" y2="860.6"/><line class="cls-1" x1="862.68" y1="264.45" x2="264.45" y2="862.68"/><line class="cls-1" x1="864.76" y1="266.53" x2="266.53" y2="864.76"/><line class="cls-1" x1="866.84" y1="268.61" x2="268.61" y2="866.84"/><line class="cls-1" x1="868.92" y1="270.69" x2="270.69" y2="868.92"/><line class="cls-1" x1="871" y1="272.76" x2="272.76" y2="871"/><line class="cls-1" x1="873.08" y1="274.84" x2="274.84" y2="873.08"/><line class="cls-1" x1="875.16" y1="276.92" x2="276.92" y2="875.16"/><line class="cls-1" x1="877.24" y1="279" x2="279" y2="877.24"/><line class="cls-1" x1="879.31" y1="281.08" x2="281.08" y2="879.31"/><line class="cls-1" x1="881.39" y1="283.16" x2="283.16" y2="881.39"/><line class="cls-1" x1="883.47" y1="285.24" x2="285.24" y2="883.47"/><line class="cls-1" x1="885.55" y1="287.32" x2="287.32" y2="885.55"/><line class="cls-1" x1="887.63" y1="289.4" x2="289.4" y2="887.63"/><line class="cls-1" x1="889.71" y1="291.48" x2="291.48" y2="889.71"/><line class="cls-1" x1="891.79" y1="293.56" x2="293.56" y2="891.79"/><line class="cls-1" x1="893.87" y1="295.64" x2="295.64" y2="893.87"/><line class="cls-1" x1="895.95" y1="297.72" x2="297.72" y2="895.95"/><line class="cls-1" x1="898.03" y1="299.8" x2="299.8" y2="898.03"/><line class="cls-1" x1="900.11" y1="301.88" x2="301.88" y2="900.11"/><line class="cls-1" x1="902.19" y1="303.96" x2="303.96" y2="902.19"/><line class="cls-1" x1="904.27" y1="306.04" x2="306.04" y2="904.27"/><line class="cls-1" x1="906.35" y1="308.12" x2="308.12" y2="906.35"/><line class="cls-1" x1="908.43" y1="310.2" x2="310.2" y2="908.43"/><line class="cls-1" x1="910.51" y1="312.27" x2="312.27" y2="910.51"/><line class="cls-1" x1="912.59" y1="314.35" x2="314.35" y2="912.59"/><line class="cls-1" x1="914.67" y1="316.43" x2="316.43" y2="914.67"/><line class="cls-1" x1="916.75" y1="318.51" x2="318.51" y2="916.75"/><line class="cls-1" x1="918.82" y1="320.59" x2="320.59" y2="918.82"/><line class="cls-1" x1="920.9" y1="322.67" x2="322.67" y2="920.9"/><line class="cls-1" x1="922.98" y1="324.75" x2="324.75" y2="922.98"/><line class="cls-1" x1="925.06" y1="326.83" x2="326.83" y2="925.06"/><line class="cls-1" x1="927.14" y1="328.91" x2="328.91" y2="927.14"/><line class="cls-1" x1="929.22" y1="330.99" x2="330.99" y2="929.22"/><line class="cls-1" x1="931.3" y1="333.07" x2="333.07" y2="931.3"/><line class="cls-1" x1="933.38" y1="335.15" x2="335.15" y2="933.38"/><line class="cls-1" x1="935.46" y1="337.23" x2="337.23" y2="935.46"/><line class="cls-1" x1="937.54" y1="339.31" x2="339.31" y2="937.54"/><line class="cls-1" x1="939.62" y1="341.39" x2="341.39" y2="939.62"/><line class="cls-1" x1="941.7" y1="343.47" x2="343.47" y2="941.7"/><line class="cls-1" x1="943.78" y1="345.55" x2="345.55" y2="943.78"/><line class="cls-1" x1="945.86" y1="347.63" x2="347.63" y2="945.86"/><line class="cls-1" x1="947.94" y1="349.71" x2="349.71" y2="947.94"/><line class="cls-1" x1="950.02" y1="351.79" x2="351.79" y2="950.02"/><line class="cls-1" x1="952.1" y1="353.86" x2="353.86" y2="952.1"/><line class="cls-1" x1="954.18" y1="355.94" x2="355.94" y2="954.18"/><line class="cls-1" x1="956.26" y1="358.02" x2="358.02" y2="956.26"/><line class="cls-1" x1="958.34" y1="360.1" x2="360.1" y2="958.34"/><line class="cls-1" x1="960.41" y1="362.18" x2="362.18" y2="960.41"/><line class="cls-1" x1="962.49" y1="364.26" x2="364.26" y2="962.49"/><line class="cls-1" x1="964.57" y1="366.34" x2="366.34" y2="964.57"/><line class="cls-1" x1="966.65" y1="368.42" x2="368.42" y2="966.65"/><line class="cls-1" x1="968.73" y1="370.5" x2="370.5" y2="968.73"/><line class="cls-1" x1="970.81" y1="372.58" x2="372.58" y2="970.81"/><line class="cls-1" x1="972.89" y1="374.66" x2="374.66" y2="972.89"/><line class="cls-1" x1="974.97" y1="376.74" x2="376.74" y2="974.97"/><line class="cls-1" x1="977.05" y1="378.82" x2="378.82" y2="977.05"/><line class="cls-1" x1="979.13" y1="380.9" x2="380.9" y2="979.13"/><line class="cls-1" x1="981.21" y1="382.98" x2="382.98" y2="981.21"/><line class="cls-1" x1="983.29" y1="385.06" x2="385.06" y2="983.29"/><line class="cls-1" x1="985.37" y1="387.14" x2="387.14" y2="985.37"/><line class="cls-1" x1="987.45" y1="389.22" x2="389.22" y2="987.45"/><line class="cls-1" x1="989.53" y1="391.3" x2="391.3" y2="989.53"/><line class="cls-1" x1="991.61" y1="393.37" x2="393.37" y2="991.61"/><line class="cls-1" x1="993.69" y1="395.45" x2="395.45" y2="993.69"/><line class="cls-1" x1="995.77" y1="397.53" x2="397.53" y2="995.77"/><line class="cls-1" x1="997.85" y1="399.61" x2="399.61" y2="997.85"/><line class="cls-1" x1="999.92" y1="401.69" x2="401.69" y2="999.92"/><line class="cls-1" x1="1002" y1="403.77" x2="403.77" y2="1002"/><line class="cls-1" x1="1004.08" y1="405.85" x2="405.85" y2="1004.08"/><line class="cls-1" x1="1006.16" y1="407.93" x2="407.93" y2="1006.16"/><line class="cls-1" x1="1008.24" y1="410.01" x2="410.01" y2="1008.24"/><line class="cls-1" x1="1010.32" y1="412.09" x2="412.09" y2="1010.32"/><line class="cls-1" x1="1012.4" y1="414.17" x2="414.17" y2="1012.4"/><line class="cls-1" x1="1014.48" y1="416.25" x2="416.25" y2="1014.48"/><line class="cls-1" x1="1016.56" y1="418.33" x2="418.33" y2="1016.56"/><line class="cls-1" x1="1018.64" y1="420.41" x2="420.41" y2="1018.64"/><line class="cls-1" x1="1020.72" y1="422.49" x2="422.49" y2="1020.72"/><line class="cls-1" x1="1022.8" y1="424.57" x2="424.57" y2="1022.8"/><line class="cls-1" x1="1024.88" y1="426.65" x2="426.65" y2="1024.88"/><line class="cls-1" x1="1026.96" y1="428.73" x2="428.73" y2="1026.96"/><line class="cls-1" x1="1029.04" y1="430.81" x2="430.81" y2="1029.04"/><line class="cls-1" x1="1031.12" y1="432.88" x2="432.88" y2="1031.12"/><line class="cls-1" x1="1033.2" y1="434.96" x2="434.96" y2="1033.2"/><line class="cls-1" x1="1035.28" y1="437.04" x2="437.04" y2="1035.28"/><line class="cls-1" x1="1037.36" y1="439.12" x2="439.12" y2="1037.36"/><line class="cls-1" x1="1039.43" y1="441.2" x2="441.2" y2="1039.43"/><line class="cls-1" x1="1041.51" y1="443.28" x2="443.28" y2="1041.51"/><line class="cls-1" x1="1043.59" y1="445.36" x2="445.36" y2="1043.59"/><line class="cls-1" x1="1045.67" y1="447.44" x2="447.44" y2="1045.67"/><line class="cls-1" x1="1047.75" y1="449.52" x2="449.52" y2="1047.75"/><line class="cls-1" x1="1049.83" y1="451.6" x2="451.6" y2="1049.83"/><line class="cls-1" x1="1051.91" y1="453.68" x2="453.68" y2="1051.91"/><line class="cls-1" x1="1053.99" y1="455.76" x2="455.76" y2="1053.99"/><line class="cls-1" x1="1056.07" y1="457.84" x2="457.84" y2="1056.07"/><line class="cls-1" x1="1058.15" y1="459.92" x2="459.92" y2="1058.15"/><line class="cls-1" x1="1060.23" y1="462" x2="462" y2="1060.23"/><line class="cls-1" x1="1062.31" y1="464.08" x2="464.08" y2="1062.31"/><line class="cls-1" x1="1064.39" y1="466.16" x2="466.16" y2="1064.39"/><line class="cls-1" x1="1066.47" y1="468.24" x2="468.24" y2="1066.47"/><line class="cls-1" x1="1068.55" y1="470.32" x2="470.32" y2="1068.55"/><line class="cls-1" x1="1070.63" y1="472.39" x2="472.39" y2="1070.63"/><line class="cls-1" x1="1072.71" y1="474.47" x2="474.47" y2="1072.71"/><line class="cls-1" x1="1074.79" y1="476.55" x2="476.55" y2="1074.79"/><line class="cls-1" x1="1076.87" y1="478.63" x2="478.63" y2="1076.87"/><line class="cls-1" x1="1078.94" y1="480.71" x2="480.71" y2="1078.94"/><line class="cls-1" x1="1081.02" y1="482.79" x2="482.79" y2="1081.02"/><line class="cls-1" x1="1083.1" y1="484.87" x2="484.87" y2="1083.1"/><line class="cls-1" x1="1085.18" y1="486.95" x2="486.95" y2="1085.18"/><line class="cls-1" x1="1087.26" y1="489.03" x2="489.03" y2="1087.26"/><line class="cls-1" x1="1089.34" y1="491.11" x2="491.11" y2="1089.34"/><line class="cls-1" x1="1091.42" y1="493.19" x2="493.19" y2="1091.42"/><line class="cls-1" x1="1093.5" y1="495.27" x2="495.27" y2="1093.5"/><line class="cls-1" x1="1095.58" y1="497.35" x2="497.35" y2="1095.58"/><line class="cls-1" x1="1097.66" y1="499.43" x2="499.43" y2="1097.66"/><line class="cls-1" x1="1099.74" y1="501.51" x2="501.51" y2="1099.74"/></g></g></g></g></svg>