<svg xmlns="http://www.w3.org/2000/svg" viewBox="0 0 350 474"><defs><style>.cls-1{fill:#fff;}</style></defs><g id="Layer_2" data-name="Layer 2"><g id="Main_Icon" data-name="Main Icon"><circle class="cls-1" cx="75" cy="25" r="25"/><circle class="cls-1" cx="175" cy="25" r="25"/><path class="cls-1" d="M300,299.44c0,14-11.47,25.82-25.49,25.56A25,25,0,0,1,250,300V151.08c0-41.47-33.2-75.9-74.67-76.08A74.73,74.73,0,0,0,125,94.11,74.73,74.73,0,0,0,74.67,75C33.2,75.18,0,109.61,0,151.08V350a25,25,0,0,0,25,25h0a25,25,0,0,0,25-25V150.56c0-14,11.47-25.82,25.49-25.56A25,25,0,0,1,100,150V350a25,25,0,0,0,25,25h0a25,25,0,0,0,25-25V150.56c0-14,11.47-25.82,25.49-25.56A25,25,0,0,1,200,150V300a74.9,74.9,0,0,0,68.92,74.75q3,.25,6.08.25l2,0a20.2,20.2,0,0,1,11.42,3A25,25,0,0,1,300,399.66c-.35,13.64-11.9,24.34-25.54,24.34H25A25,25,0,0,0,0,449H0a25,25,0,0,0,25,25H281.07a56.31,56.31,0,0,0,18.81-3.23l.12,0A74.91,74.91,0,0,0,350,400V100a25,25,0,0,0-25-25h0a25,25,0,0,0-25,25Z"/></g></g></svg>