<svg id="Layer_1" fill="#29B6F6" enable-background="new 0 0 511.999 511.999" height="512" viewBox="0 0 511.999 511.999" width="512" xmlns="http://www.w3.org/2000/svg"><g><path d="m436 0h-360c-8.284 0-15 6.716-15 15v481.999c0 8.284 6.716 15 15 15h360c8.284 0 15-6.716 15-15v-481.999c0-8.284-6.716-15-15-15zm-240.003 30h120.005v15c0 8.271-6.452 15-14.383 15h-91.239c-7.932 0-14.384-6.729-14.384-15v-15zm225.003 451.999h-330v-451.999h74.997v15c0 24.813 19.91 45 44.384 45h91.238c24.473 0 44.383-20.187 44.383-45v-15h74.998z"/><path d="m346 153.932c-8.284 0-15 6.716-15 15v55.068h-30v-31.78c0-8.284-6.716-15-15-15s-15 6.716-15 15v31.78h-30.001v-89.002c0-8.284-6.716-15-15-15s-15 6.716-15 15v89.002h-29.999v-16.89c0-8.284-6.716-15-15-15s-15 6.716-15 15v16.89h-15.002c-8.284 0-15 6.716-15 15s6.716 15 15 15h240.005c8.284 0 15-6.716 15-15s-6.716-15-15-15h-15.003v-55.068c0-8.284-6.716-15-15-15z"/><path d="m375.997 284h-239.998c-8.284 0-15 6.716-15 15s6.716 15 15 15h239.998c8.284 0 15-6.716 15-15s-6.716-15-15-15z"/><path d="m375.997 344h-239.998c-8.284 0-15 6.716-15 15s6.716 15 15 15h239.998c8.284 0 15-6.716 15-15s-6.716-15-15-15z"/><path d="m240.993 404h-104.994c-8.284 0-15 6.716-15 15s6.716 15 15 15h104.994c8.284 0 15-6.716 15-15s-6.716-15-15-15z"/></g></svg>