<svg id="Layer_1" fill="#29B6F6" enable-background="new 0 0 512 512" height="512" viewBox="0 0 512 512" width="512" xmlns="http://www.w3.org/2000/svg"><path d="m497 303h-76.231l7.981-73.512c11.835-6.422 19.901-19.039 19.901-33.525v-76.021c0-20.974-16.904-38.037-37.683-38.037h-.432c8.799-8.683 14.265-20.737 14.265-34.046.001-26.39-21.468-47.859-47.858-47.859s-47.858 21.469-47.858 47.858c0 13.309 5.466 25.363 14.265 34.046h-.432c-20.778 0-37.683 17.063-37.683 38.037v76.021c0 14.409 7.979 26.972 19.711 33.425l8.138 73.613h-75.971c-8.284 0-15 6.716-15 15v44h-102.113c-8.284 0-15 6.716-15 15v45h-110c-8.284 0-15 6.716-15 15v60c0 8.284 6.716 15 15 15s15-6.716 15-15v-45h110c8.284 0 15-6.716 15-15v-45h102.113c8.284 0 15-6.716 15-15v-44h209.887v164c0 8.284 6.716 15 15 15s15-6.716 15-15v-179c0-8.284-6.716-15-15-15zm-120.057-273c9.848 0 17.858 8.011 17.858 17.858s-8.011 17.858-17.858 17.858-17.858-8.011-17.858-17.858 8.011-17.858 17.858-17.858zm-41.708 89.941c0-4.432 3.446-8.037 7.683-8.037h19.025v29.878c0 8.284 6.716 15 15 15s15-6.716 15-15v-29.878h19.025c4.236 0 7.683 3.605 7.683 8.037v76.021c0 4.432-3.446 8.037-7.683 8.037h-68.051c-4.236 0-7.683-3.605-7.683-8.037v-76.021zm20.404 114.059h42.446l-7.492 69h-27.326z"/></svg>