<?xml version="1.0"?>
<svg xmlns="http://www.w3.org/2000/svg" id="Outline" fill="#29B6F6" viewBox="0 0 512 512" width="512" height="512"><path d="M450.316,258.415a230.839,230.839,0,0,0-33.12-77.042L396,149.578V121.121l12.687-44.4a40.2,40.2,0,0,0-1.322-25.845l-3.891-9.726A39.809,39.809,0,0,0,366.335,16h-4.67a39.81,39.81,0,0,0-37.139,25.144l-3.891,9.728a40.2,40.2,0,0,0-1.323,25.844L332,121.121v28.457l-21.2,31.795c-3.868,5.8-7.472,11.8-10.8,17.931-3.332-6.132-6.936-12.131-10.8-17.931L268,149.578V121.121l12.687-44.4a40.2,40.2,0,0,0-1.322-25.845l-3.891-9.726A39.809,39.809,0,0,0,238.335,16h-4.67a39.81,39.81,0,0,0-37.139,25.144l-3.891,9.728a40.2,40.2,0,0,0-1.323,25.844L204,121.121v28.457l-21.2,31.795q-5.84,8.758-10.8,17.931c-3.332-6.133-6.936-12.131-10.8-17.931L140,149.578V121.121l12.687-44.4a40.2,40.2,0,0,0-1.322-25.845l-3.891-9.726A39.809,39.809,0,0,0,110.335,16h-4.67A39.81,39.81,0,0,0,68.526,41.144l-3.891,9.728a40.2,40.2,0,0,0-1.323,25.844L76,121.121v28.457L54.8,181.373A231.61,231.61,0,0,0,24.768,373.8l19.54,68.4A8,8,0,0,0,52,448H164a8,8,0,0,0,7.692-5.8l.308-1.077.308,1.076A8,8,0,0,0,180,448h76.4A135.748,135.748,0,0,0,360,496c74.99,0,136-61.009,136-136A135.692,135.692,0,0,0,450.316,258.415ZM381.965,112H346.034l-4.571-16h45.074ZM380,128v16H348V128Zm-35.719,32h39.438l10.666,16h-60.77ZM335.49,56.815l3.892-9.729A23.885,23.885,0,0,1,361.665,32h4.67a23.884,23.884,0,0,1,22.283,15.087l3.892,9.727a24.117,24.117,0,0,1,.793,15.507L391.109,80H336.891L334.7,72.321A24.113,24.113,0,0,1,335.49,56.815ZM322.973,192h82.05a214.87,214.87,0,0,1,24.511,51.165A135.823,135.823,0,0,0,314.551,231.82q-2.64-7.374-5.771-14.516A216.1,216.1,0,0,1,322.973,192Zm-69.008-80H218.034l-4.571-16h45.074ZM252,128v16H220V128Zm-35.719,32h39.438l10.666,16h-60.77ZM207.49,56.815l3.892-9.729A23.885,23.885,0,0,1,233.665,32h4.67a23.884,23.884,0,0,1,22.283,15.087l3.892,9.727a24.117,24.117,0,0,1,.793,15.507L263.109,80H208.891L206.7,72.321A24.113,24.113,0,0,1,207.49,56.815ZM125.965,112H90.034L85.463,96h45.074ZM124,128v16H92V128ZM88.281,160h39.438l10.666,16H77.615ZM79.49,56.815l3.892-9.729A23.885,23.885,0,0,1,105.665,32h4.67a23.884,23.884,0,0,1,22.283,15.087l3.892,9.727a24.117,24.117,0,0,1,.793,15.507L135.109,80H80.891L78.7,72.321A24.113,24.113,0,0,1,79.49,56.815ZM157.966,432H58.034L40.152,369.4A215.624,215.624,0,0,1,66.982,192h82.044a215.889,215.889,0,0,1,14.181,25.277A231.532,231.532,0,0,0,152.768,373.8L163.68,412Zm28.068,0-17.882-62.6A215.624,215.624,0,0,1,194.982,192h82.045a215.936,215.936,0,0,1,15.7,28.527c2.607,5.7,4.974,11.581,7.08,17.545A135.88,135.88,0,0,0,244.675,432ZM360,480A120,120,0,1,1,480,360,120.136,120.136,0,0,1,360,480Z"/><path d="M368,272a24,24,0,1,0,24,24A24.027,24.027,0,0,0,368,272Zm0,32a8,8,0,1,1,8-8A8.009,8.009,0,0,1,368,304Z"/><path d="M432,312a24,24,0,1,0,24,24A24.027,24.027,0,0,0,432,312Zm0,32a8,8,0,1,1,8-8A8.009,8.009,0,0,1,432,344Z"/><path d="M368,352a24,24,0,1,0,24,24A24.027,24.027,0,0,0,368,352Zm0,32a8,8,0,1,1,8-8A8.009,8.009,0,0,1,368,384Z"/></svg>
