<?xml version="1.0" encoding="UTF-8"?>
<svg width="620px" height="219px" viewBox="0 0 620 219" version="1.1" xmlns="http://www.w3.org/2000/svg" xmlns:xlink="http://www.w3.org/1999/xlink">
    <!-- Generator: Sketch 57.1 (83088) - https://sketch.com -->
    <title>Give-logo</title>
    <desc>Created with Sketch.</desc>
    <g id="Page-1" stroke="none" stroke-width="1" fill="none" fill-rule="evenodd">
        <g id="GIVE-INDIA" transform="translate(-171.000000, -640.000000)" fill-rule="nonzero">
            <g id="Give-logo" transform="translate(171.000000, 640.000000)">
                <g id="Group" transform="translate(195.000000, 0.000000)" fill="#FF5050">
                    <path d="M268.16,208.61 L264.12,208.61 L264.12,179.74 L268.16,179.74 L268.16,208.61 Z M308.16,202.82 L308.24,202.82 L308.24,179.74 L312.28,179.74 L312.28,208.61 L307.18,208.61 L291.93,185.04 L291.85,185.04 L291.85,208.61 L287.81,208.61 L287.81,179.74 L293.07,179.74 L308.16,202.82 Z M331.94,179.74 L341.85,179.74 C343.7,179.74 345.55,180.01 347.4,180.56 C349.25,181.1 350.92,181.96 352.42,183.13 C353.92,184.3 355.13,185.79 356.05,187.62 C356.97,189.44 357.44,191.63 357.44,194.19 C357.44,196.66 356.98,198.8 356.05,200.61 C355.13,202.42 353.92,203.91 352.42,205.1 C350.92,206.28 349.25,207.17 347.4,207.75 C345.55,208.34 343.7,208.63 341.85,208.63 L331.94,208.63 L331.94,179.74 Z M335.98,205.07 L341.04,205.07 C342.78,205.07 344.39,204.83 345.87,204.34 C347.35,203.85 348.63,203.14 349.7,202.22 C350.77,201.3 351.61,200.15 352.21,198.79 C352.81,197.43 353.11,195.89 353.11,194.18 C353.11,192.38 352.81,190.81 352.21,189.45 C351.61,188.09 350.78,186.96 349.7,186.04 C348.62,185.13 347.35,184.44 345.87,183.96 C344.39,183.48 342.78,183.25 341.04,183.25 L335.98,183.25 L335.98,205.07 Z M379.65,208.61 L375.61,208.61 L375.61,179.74 L379.65,179.74 L379.65,208.61 Z M400.49,208.61 L396,208.61 L408.52,179.74 L412.19,179.74 L424.59,208.61 L420.02,208.61 L417.08,201.51 L403.38,201.51 L400.49,208.61 Z M404.81,197.97 L415.62,197.97 L410.24,184.43 L404.81,197.97 Z" id="XMLID_53_"></path>
                    <g>
                        <path d="M111.15,54.11 C108.95,51.95 105.86,50.88 101.88,50.88 C94.66,50.88 87.53,54.86 80.47,62.83 C72.09,54.12 60.97,49.76 47.12,49.76 C35.92,49.76 26.23,53.39 18.06,60.65 C9.89,67.91 5.8,76.73 5.8,87.1 C5.8,94.48 7.79,101.16 11.77,107.14 C15.75,113.11 21.68,118.43 29.57,123.07 C14.39,125.89 6.79,132.74 6.79,143.6 C6.79,149.24 9.44,153.85 14.75,157.41 C20.06,161.06 31.63,163.26 49.47,164.01 C64.98,164.67 75.77,166.66 81.83,169.98 C87.89,173.38 90.92,179.23 90.92,187.53 C90.92,195.08 87.54,201.28 80.78,206.14 C74.02,210.99 64.58,213.42 52.47,213.42 C38.86,213.42 28.64,211.04 21.79,206.26 C14.95,201.49 11.52,195.45 11.52,188.15 C11.52,181.84 14.09,175.87 19.23,170.23 C18.15,169.82 16.95,169.61 15.62,169.61 C10.72,169.61 6.95,171.23 4.29,174.46 C1.64,177.69 0.31,181.84 0.31,186.9 C0.31,196.03 4.96,203.58 14.25,209.55 C23.54,215.52 35.9,218.51 51.34,218.51 C68.18,218.51 81.08,215.15 90.04,208.43 C99,201.71 103.48,192.87 103.48,181.92 C103.48,174.12 101.28,167.4 96.89,161.76 C92.49,156.12 86.6,152.36 79.22,150.5 C71.84,148.63 61.3,147.37 47.61,146.7 C35.08,146.04 26.87,145.04 22.97,143.71 C18.99,142.46 17,140.31 17,137.24 C17,130.69 25.79,127.12 43.38,126.54 C60.31,125.96 72.33,121.81 79.47,114.1 C86.61,106.47 90.17,97.67 90.17,87.72 C90.17,80.09 88.01,72.87 83.7,66.07 C87.52,61.76 91,59.6 94.15,59.6 C96.14,59.6 98.05,61.18 99.88,64.33 C101.87,67.73 104.23,69.43 106.97,69.43 C111.95,69.43 114.440135,66.69 114.440135,61.22 C114.45,58.64 113.35,56.27 111.15,54.11 Z M64.11,113.54 C59.59,118.48 54.17,120.95 47.87,120.95 C41.07,120.95 35.46,118.46 31.07,113.48 C26.67,108.5 24.47,100.66 24.47,89.96 C24.47,78.43 26.38,69.8 30.19,64.07 C34.01,58.34 39.73,55.48 47.36,55.48 C53.42,55.48 58.85,57.8 63.66,62.45 C68.47,67.1 70.8800658,75.56 70.8800658,87.84 C70.89,100.03 68.63,108.6 64.11,113.54 Z" id="Shape"></path>
                        <path d="M171.42,49.76 L171.42,120.82 C171.42,131.69 171.59,138.53 171.92,141.35 C172.25,144.17 173.45,146.33 175.53,147.82 C177.6,149.31 181.3,150.06 186.61,150.06 L189.22,150.06 L189.22,155.78 L134.34,155.78 L134.34,150.06 L138.57,150.06 C144.46,150.06 148.3,149.21 150.08,147.51 C151.86,145.81 152.9,143.78 153.19,141.41 C153.48,139.04 153.63,132.18 153.63,120.81 L153.63,89.95 C153.63,78 153.07,70.7 151.95,68.05 C150.83,65.4 149.34,63.74 147.47,63.07 C145.61,62.41 142.35,62.07 137.7,62.07 L134.34,62.07 L134.34,56.35 C149.11,54.86 160.56,52.66 168.69,49.75 L171.42,49.75 L171.42,49.76 Z" id="XMLID_52_"></path>
                        <path d="M262.45,159.9 L255.23,159.9 L219.01,78.14 C215.44,70.26 212.62,65.24 210.55,63.08 C208.47,60.92 205.07,59.76 200.35,59.6 L200.35,53.87 L246.4,53.87 L246.4,59.6 C241.34,59.6 237.87,60.01 236.01,60.84 C234.14,61.67 233.21,63.25 233.21,65.57 C233.21,67.4 234.87,71.83 238.19,78.89 L265.69,140.74 L290.46,85.61 C294.36,76.82 296.31,71.09 296.31,68.44 C296.31,62.88 292.16,59.94 283.87,59.61 L283.87,53.88 L318.22,53.88 L318.22,59.61 C313.99,59.86 310.44,61.62 307.58,64.9 C304.72,68.18 300.71,75.54 295.57,86.99 L262.45,159.9 Z" id="XMLID_51_"></path>
                        <path d="M386.5,153.18 C375.38,153.18 367.02,148.68 361.42,139.68 C355.82,130.68 353.02,117.22 353.02,99.29 C353.02,96.88 353.19,93.24 353.52,88.34 L424.58,88.34 C424.16,78.88 420.31,70.09 413.01,61.96 C405.71,53.83 395.38,49.76 382.02,49.76 C367.83,49.76 356.01,55.09 346.55,65.75 C337.09,76.41 332.36,89.79 332.36,105.89 C332.36,117.26 334.81,126.92 339.7,134.89 C344.6,142.85 350.88,149.02 358.56,153.37 C366.23,157.73 374.38,159.9 383.01,159.9 C392.3,159.9 400.89,157.51 408.77,152.74 C416.65,147.97 421.92,141.35 424.57,132.89 L418.6,132.89 C412.31,146.41 401.6,153.18 386.5,153.18 Z M381.03,55.23 C387.25,55.23 392.5,57.24 396.77,61.27 C401.04,65.3 403.18,70.96 403.18,78.26 C403.18,79.75 403.06,81.46 402.81,83.36 L354.03,83.36 C356.93,64.61 365.93,55.23 381.03,55.23 Z" id="Shape"></path>
                        <circle id="Oval" cx="159.85" cy="10.88" r="10.08"></circle>
                    </g>
                </g>
                <g id="Group" transform="translate(0.000000, 20.000000)">
                    <polygon id="Path" fill="#964D4F" points="116.04 67.36 77.42 45.06 77.42 89.65"></polygon>
                    <polygon id="Path" fill="#F2D1D1" points="116.04 111.95 77.42 89.65 77.42 134.25"></polygon>
                    <polygon id="Path" fill="#EF5253" points="154.66 89.65 116.04 67.36 116.04 111.95"></polygon>
                    <polygon id="Path" fill="#F16F6F" points="77.42 89.65 116.04 67.36 116.04 111.95"></polygon>
                    <polygon id="Path" fill="#F16F6F" points="38.8 111.95 0.18 89.65 0.18 134.25"></polygon>
                    <polygon id="Path" fill="#F16F6F" points="77.42 89.65 38.8 67.36 38.8 111.95"></polygon>
                    <polygon id="Path" fill="#EF5253" points="0.18 89.65 38.8 67.36 38.8 111.95"></polygon>
                    <polygon id="Path" fill="#964D4F" points="38.8 22.76 0.18 0.46 0.18 45.06"></polygon>
                    <polygon id="Path" fill="#EF5253" points="77.42 45.06 38.8 22.76 38.8 67.36"></polygon>
                    <polygon id="Path" fill="#EF5253" points="77.42 134.25 38.8 111.95 38.8 156.55"></polygon>
                    <polygon id="Path" fill="#964D4F" points="38.8 156.55 0.18 134.25 0.18 178.85"></polygon>
                    <polygon id="Path" fill="#F2D1D1" points="38.8 67.36 77.42 45.06 77.42 89.65"></polygon>
                    <polygon id="Path" fill="#964D4F" points="38.8 111.95 77.42 89.65 77.42 134.25"></polygon>
                    <polygon id="Path" fill="#F2D1D1" points="0.18 134.25 38.8 111.95 38.8 156.55"></polygon>
                    <polygon id="Path" fill="#F16F6F" points="0.18 45.06 38.8 22.76 38.8 67.36"></polygon>
                </g>
            </g>
        </g>
    </g>
</svg>