<svg width="1920" height="1500" xmlns="http://www.w3.org/2000/svg">
 <defs>
  <style>.cls-1{fill:#29b6f6;}</style>
 </defs>
 <g>
  <title>background</title>
  <rect fill="none" id="canvas_background" height="1502" width="1922" y="-1" x="-1"/>
 </g>
 <g>
  <title>Layer 1</title>
  <g id="Layer_2">
   <g id="Desktop_Website">
    <g id="Landing_page">
     <g id="back">
      <path id="svg_1" d="m1920,14.13l0,1049.39c-262.47,174.77 -544.59,196.36 -875.71,93.76c-378.85,-122.75 -782.7,-151.84 -1044.29,-29.11l0,-1049.39c261.59,-122.73 665.44,-93.64 1044.29,29.11c331.12,102.6 613.24,81.01 875.71,-93.76z" class="cls-1"/>
     </g>
    </g>
   </g>
  </g>
  <g id="svg_6">
   <g id="svg_5">
    <g id="svg_4">
     <g id="svg_3">
      <path id="svg_2" d="m1920,294.12931l0,1049.39c-262.47,174.77 -544.59,196.36 -875.71,93.76c-378.85,-122.75 -782.7,-151.84 -1044.29,-29.11l0,-1049.39c261.59,-122.73 665.44,-93.64 1044.29,29.11c331.12,102.6 613.24,81.01 875.71,-93.76z" class="cls-1"/>
     </g>
    </g>
   </g>
  </g>
 </g>
</svg>