<svg xmlns="http://www.w3.org/2000/svg" viewBox="0 0 120 120"><defs><style>.cls-1{fill:#FFFFFF;}</style></defs><title>instagram</title><g id="Layer_2" data-name="Layer 2"><g id="Layer_1-2" data-name="Layer 1"><g id="_002-instagram" data-name=" 002-instagram"><path id="Path_34" data-name="Path 34" class="cls-1" d="M71.49,60A11.49,11.49,0,1,1,60,48.52,11.5,11.5,0,0,1,71.49,60Z"/><path id="Path_35" data-name="Path 35" class="cls-1" d="M86.86,39.68a11.45,11.45,0,0,0-6.54-6.54A18.89,18.89,0,0,0,73.92,32c-3.63-.17-4.72-.21-13.92-.21s-10.29,0-13.92.2a19.14,19.14,0,0,0-6.4,1.19,11.45,11.45,0,0,0-6.54,6.54A19.14,19.14,0,0,0,32,46.08c-.16,3.63-.2,4.72-.2,13.92s0,10.29.2,13.92a19.14,19.14,0,0,0,1.19,6.4,11.42,11.42,0,0,0,6.54,6.54,19.14,19.14,0,0,0,6.4,1.19c3.63.16,4.72.2,13.92.2s10.29,0,13.92-.2a19.19,19.19,0,0,0,6.4-1.19,11.45,11.45,0,0,0,6.54-6.54A19.13,19.13,0,0,0,88,73.92c.17-3.63.2-4.72.2-13.92s0-10.29-.2-13.92a18.89,18.89,0,0,0-1.18-6.4ZM60,77.68A17.7,17.7,0,1,1,77.69,60h0A17.69,17.69,0,0,1,60,77.69h0Zm18.39-32a4.14,4.14,0,1,1,4.14-4.13,4.13,4.13,0,0,1-4.14,4.13h0Z"/><path id="Path_36" data-name="Path 36" class="cls-1" d="M60,0a60,60,0,1,0,60,60A60,60,0,0,0,60,0ZM94.25,74.2a25.47,25.47,0,0,1-1.6,8.37A17.57,17.57,0,0,1,82.57,92.64a25.17,25.17,0,0,1-8.36,1.61c-3.68.16-4.85.2-14.21.2s-10.53,0-14.2-.2a25.23,25.23,0,0,1-8.37-1.61A17.59,17.59,0,0,1,27.36,82.57a25,25,0,0,1-1.6-8.36c-.17-3.68-.21-4.85-.21-14.21s0-10.53.21-14.2a25,25,0,0,1,1.6-8.37A17.59,17.59,0,0,1,37.43,27.36a25.23,25.23,0,0,1,8.37-1.61c3.67-.16,4.84-.2,14.2-.2s10.53,0,14.2.2a25.47,25.47,0,0,1,8.37,1.6A17.6,17.6,0,0,1,92.64,37.43a25.17,25.17,0,0,1,1.61,8.36c.16,3.68.2,4.85.2,14.21S94.41,70.53,94.25,74.2Z"/></g></g></g></svg>