<svg width="1920" height="1650" xmlns="http://www.w3.org/2000/svg">
 <defs>
  <style>.cls-1{fill:#29b6f6;}</style>
 </defs>
 <g>
  <title>background</title>
  <rect fill="none" id="canvas_background" height="1652" width="1922" y="-1" x="-1"/>
 </g>
 <g>
  <title>Layer 1</title>
  <g id="Layer_2">
   <g id="Desktop_Website">
    <g id="Landing_page">
     <g id="back">
      <path id="svg_1" d="m1920,14.13l0,1049.390019c-262.469971,174.77002 -544.590088,196.359985 -875.709961,93.76001c-378.850037,-122.75 -782.700043,-151.840027 -1044.290039,-29.109985l0,-1049.390045c261.589996,-122.73 665.440002,-93.639998 1044.290039,29.110001c331.119995,102.600006 613.23999,81.009995 875.709961,-93.759999z" class="cls-1"/>
     </g>
    </g>
   </g>
  </g>
  <path id="svg_2" d="m2.705937,1129.163452" opacity="0.5" stroke-width="1.5" stroke="#000" fill="#fff"/>
  <g id="svg_12">
   <g id="svg_11">
    <g id="svg_10">
     <g id="svg_9">
      <path id="svg_8" d="m1920,14.13l0,1049.390019c-262.469971,174.77002 -544.590088,196.359985 -875.709961,93.76001c-378.850037,-122.75 -782.700043,-151.840027 -1044.290039,-29.109985l0,-1049.390045c261.589996,-122.73 665.440002,-93.639998 1044.290039,29.110001c331.119995,102.600006 613.23999,81.009995 875.709961,-93.759999z" class="cls-1"/>
     </g>
    </g>
   </g>
  </g>
  <g id="svg_17">
   <g id="svg_16">
    <g id="svg_15">
     <g id="svg_14">
      <path id="svg_13" d="m1919.999756,445.381073l0,1049.390167c-262.469971,174.77002 -544.590088,196.359985 -875.709961,93.76001c-378.84967,-122.75 -782.699799,-151.839966 -1044.289795,-29.109985l0,-1049.390167c261.589997,-122.730011 665.440125,-93.639984 1044.289795,29.109833c331.119995,102.600037 613.23999,81.01001 875.709961,-93.759857z" class="cls-1"/>
     </g>
    </g>
   </g>
  </g>
 </g>
</svg>