<svg width="1920.0000000000002" height="4000.0000000000005" xmlns="http://www.w3.org/2000/svg">
 <defs>
  <style>.cls-1{fill:#29b6f6;}</style>
 </defs>
 <g>
  <title>background</title>
  <rect fill="none" id="canvas_background" height="4002" width="1922" y="-1" x="-1"/>
 </g>
 <g>
  <title>Layer 1</title>
  <g id="Layer_2">
   <g id="Desktop_Website">
    <g id="Landing_page">
     <g id="back">
      <path id="svg_1" d="m1920,14.13l0,1049.390019c-262.469971,174.77002 -544.590088,196.359985 -875.709961,93.76001c-378.850037,-122.75 -782.700043,-151.840027 -1044.290039,-29.109985l0,-1049.390045c261.589996,-122.73 665.440002,-93.639998 1044.290039,29.110001c331.119995,102.600006 613.23999,81.009995 875.709961,-93.759999z" class="cls-1"/>
     </g>
    </g>
   </g>
  </g>
  <path id="svg_2" d="m2.705937,1129.163452" opacity="0.5" stroke-width="1.5" stroke="#000" fill="#fff"/>
  <g id="svg_12">
   <g id="svg_11">
    <g id="svg_10">
     <g id="svg_9">
      <path id="svg_8" d="m1920,14.13l0,1049.390019c-262.469971,174.77002 -544.590088,196.359985 -875.709961,93.76001c-378.850037,-122.75 -782.700043,-151.840027 -1044.290039,-29.109985l0,-1049.390045c261.589996,-122.73 665.440002,-93.639998 1044.290039,29.110001c331.119995,102.600006 613.23999,81.009995 875.709961,-93.759999z" class="cls-1"/>
     </g>
    </g>
   </g>
  </g>
  <g id="svg_17">
   <g id="svg_16">
    <g id="svg_15">
     <g id="svg_14">
      <path id="svg_13" d="m1920,14.13l0,1049.390019c-262.469971,174.77002 -544.590088,196.359985 -875.709961,93.76001c-378.850037,-122.75 -782.700043,-151.840027 -1044.290039,-29.109985l0,-1049.390045c261.589996,-122.73 665.440002,-93.639998 1044.290039,29.110001c331.119995,102.600006 613.23999,81.009995 875.709961,-93.759999z" class="cls-1"/>
     </g>
    </g>
   </g>
  </g>
  <g id="svg_22">
   <g id="svg_21">
    <g id="svg_20">
     <g id="svg_19">
      <path id="svg_18" d="m1920,1055.796753l0,1049.390015c-262.469971,174.77002 -544.590088,196.360107 -875.709961,93.76001c-378.850037,-122.75 -782.700043,-151.840088 -1044.290039,-29.109863l0,-1049.390137c261.589996,-122.730042 665.440002,-93.640015 1044.290039,29.109985c331.119995,102.599976 613.23999,81.01001 875.709961,-93.76001z" class="cls-1"/>
     </g>
    </g>
   </g>
  </g>
  <g id="svg_27">
   <g id="svg_26">
    <g id="svg_25">
     <g id="svg_24">
      <path id="svg_23" d="m1920,2076.630127l0,1049.390137c-262.469971,174.77002 -544.590088,196.360107 -875.709961,93.76001c-378.850037,-122.75 -782.700043,-151.840088 -1044.29004,-29.109863l0,-1049.390137c261.589997,-122.72998 665.440003,-93.640015 1044.29004,29.109863c331.119995,102.600098 613.23999,81.01001 875.709961,-93.76001z" class="cls-1"/>
     </g>
    </g>
   </g>
  </g>
  <g id="svg_32">
   <g id="svg_31">
    <g id="svg_30">
     <g id="svg_29">
      <path id="svg_28" d="m1920.833374,2791.630127l0,1049.390137c-262.469971,174.769775 -544.590088,196.360107 -875.709961,93.76001c-378.850098,-122.75 -782.700073,-151.840088 -1044.290092,-29.109863l0,-1049.390137c261.590018,-122.72998 665.439994,-93.640137 1044.290092,29.109863c331.119995,102.600098 613.23999,81.01001 875.709961,-93.76001z" class="cls-1"/>
     </g>
    </g>
   </g>
  </g>
 </g>
</svg>