<svg width="1920" height="2600" xmlns="http://www.w3.org/2000/svg">
 <defs>
  <style>.cls-1{fill:#29b6f6;}</style>
 </defs>
 <g>
  <title>background</title>
  <rect x="-1" y="-1" width="1922" height="2602" id="canvas_background" fill="none"/>
 </g>
 <g>
  <title>Layer 1</title>
  <g id="Layer_2">
   <g id="Desktop_Website">
    <g id="Landing_page">
     <g id="back">
      <path class="cls-1" d="m1920,45.61363l0,1049.38918c-262.46997,174.77002 -544.59009,196.35998 -875.70996,93.76001c-378.85004,-122.75 -782.70004,-151.83936 -1044.29004,-29.10999l0,-1049.38913c261.59,-122.73007 665.44,-93.64006 1044.29004,29.10994c331.11999,102.59993 613.23999,81.00992 875.70996,-93.76001z" id="svg_1"/>
     </g>
    </g>
   </g>
  </g>
  <g id="svg_6">
   <g id="svg_5">
    <g id="svg_4">
     <g id="svg_3">
      <path class="cls-1" d="m1920,595.09644l0,1049.3767c-262.46997,174.77002 -544.59009,196.36011 -875.70996,93.76001c-378.85004,-122.75 -782.70004,-151.83935 -1044.29004,-29.10986l0,-1049.37646c261.59,-122.73072 665.44,-93.64051 1044.29004,29.1101c331.11999,102.60077 613.23999,81.01056 875.70996,-93.76049z" id="svg_2"/>
     </g>
    </g>
   </g>
  </g>
  <g id="svg_11">
   <g id="svg_10">
    <g id="svg_9">
     <g id="svg_8">
      <path class="cls-1" d="m1920,1301.06789l0,1049.3767c-262.46997,174.77002 -544.59009,196.36011 -875.70996,93.76001c-378.85004,-122.75 -782.70004,-151.83935 -1044.29004,-29.10986l0,-1049.37646c261.59,-122.73072 665.44,-93.64051 1044.29004,29.1101c331.11999,102.60077 613.23999,81.01056 875.70996,-93.76049z" id="svg_7"/>
     </g>
    </g>
   </g>
  </g>
 </g>
</svg>